<mxfile host="app.diagrams.net" modified="2020-10-01T13:55:01.239Z" agent="5.0 (Windows)" etag="F81SJhg7kuNcLVEXBBp_" version="13.7.7" type="github">
  <diagram id="pwoI5I6F6qLQA7z7TguW" name="Page-1">
    <mxGraphModel dx="981" dy="546" grid="1" gridSize="10" guides="1" tooltips="1" connect="1" arrows="1" fold="1" page="1" pageScale="1" pageWidth="827" pageHeight="1169" math="0" shadow="0">
      <root>
        <mxCell id="0" />
        <mxCell id="1" parent="0" />
        <mxCell id="NrFbyqDi8mzPXDeEG6nv-1" value="" style="rounded=1;whiteSpace=wrap;html=1;" vertex="1" parent="1">
          <mxGeometry x="50" y="50" width="120" height="60" as="geometry" />
        </mxCell>
        <mxCell id="NrFbyqDi8mzPXDeEG6nv-2" value="" style="rounded=1;whiteSpace=wrap;html=1;" vertex="1" parent="1">
          <mxGeometry x="280" y="40" width="340" height="90" as="geometry" />
        </mxCell>
        <mxCell id="NrFbyqDi8mzPXDeEG6nv-3" value="" style="rounded=1;whiteSpace=wrap;html=1;" vertex="1" parent="1">
          <mxGeometry x="320" y="50" width="120" height="60" as="geometry" />
        </mxCell>
        <mxCell id="NrFbyqDi8mzPXDeEG6nv-4" value="" style="rounded=1;whiteSpace=wrap;html=1;" vertex="1" parent="1">
          <mxGeometry x="490" y="50" width="120" height="60" as="geometry" />
        </mxCell>
        <mxCell id="NrFbyqDi8mzPXDeEG6nv-5" value="" style="rounded=1;whiteSpace=wrap;html=1;" vertex="1" parent="1">
          <mxGeometry x="200" y="150" width="120" height="60" as="geometry" />
        </mxCell>
        <mxCell id="NrFbyqDi8mzPXDeEG6nv-6" value="" style="rounded=1;whiteSpace=wrap;html=1;" vertex="1" parent="1">
          <mxGeometry x="410" y="150" width="120" height="60" as="geometry" />
        </mxCell>
        <mxCell id="NrFbyqDi8mzPXDeEG6nv-8" value="ir" style="rounded=0;whiteSpace=wrap;html=1;" vertex="1" parent="1">
          <mxGeometry x="150" y="70" width="30" height="10" as="geometry" />
        </mxCell>
        <mxCell id="NrFbyqDi8mzPXDeEG6nv-10" value="ir1" style="rounded=0;whiteSpace=wrap;html=1;" vertex="1" parent="1">
          <mxGeometry x="150" y="70" width="30" height="10" as="geometry" />
        </mxCell>
        <mxCell id="NrFbyqDi8mzPXDeEG6nv-11" value="ir3" style="rounded=0;whiteSpace=wrap;html=1;" vertex="1" parent="1">
          <mxGeometry x="300" y="170" width="30" height="10" as="geometry" />
        </mxCell>
        <mxCell id="NrFbyqDi8mzPXDeEG6nv-14" value="ir2" style="rounded=0;whiteSpace=wrap;html=1;" vertex="1" parent="1">
          <mxGeometry x="430" y="70" width="30" height="10" as="geometry" />
        </mxCell>
        <mxCell id="NrFbyqDi8mzPXDeEG6nv-15" value="if3" style="rounded=0;whiteSpace=wrap;html=1;" vertex="1" parent="1">
          <mxGeometry x="310" y="70" width="30" height="10" as="geometry" />
        </mxCell>
        <mxCell id="NrFbyqDi8mzPXDeEG6nv-16" value="if2" style="rounded=0;whiteSpace=wrap;html=1;" vertex="1" parent="1">
          <mxGeometry x="260" y="70" width="30" height="10" as="geometry" />
        </mxCell>
        <mxCell id="NrFbyqDi8mzPXDeEG6nv-17" value="if4" style="rounded=0;whiteSpace=wrap;html=1;" vertex="1" parent="1">
          <mxGeometry x="480" y="70" width="30" height="10" as="geometry" />
        </mxCell>
        <mxCell id="NrFbyqDi8mzPXDeEG6nv-20" value="if5" style="rounded=0;whiteSpace=wrap;html=1;" vertex="1" parent="1">
          <mxGeometry x="390" y="170" width="30" height="10" as="geometry" />
        </mxCell>
        <mxCell id="NrFbyqDi8mzPXDeEG6nv-21" value="" style="endArrow=none;html=1;exitX=1;exitY=0.5;exitDx=0;exitDy=0;entryX=0;entryY=0.5;entryDx=0;entryDy=0;" edge="1" parent="1" source="NrFbyqDi8mzPXDeEG6nv-11" target="NrFbyqDi8mzPXDeEG6nv-20">
          <mxGeometry width="50" height="50" relative="1" as="geometry">
            <mxPoint x="360" y="220" as="sourcePoint" />
            <mxPoint x="410" y="170" as="targetPoint" />
          </mxGeometry>
        </mxCell>
        <mxCell id="NrFbyqDi8mzPXDeEG6nv-22" value="" style="endArrow=none;html=1;exitX=1;exitY=0.5;exitDx=0;exitDy=0;entryX=0;entryY=0.5;entryDx=0;entryDy=0;" edge="1" parent="1" source="NrFbyqDi8mzPXDeEG6nv-10" target="NrFbyqDi8mzPXDeEG6nv-16">
          <mxGeometry width="50" height="50" relative="1" as="geometry">
            <mxPoint x="370" y="240" as="sourcePoint" />
            <mxPoint x="240" y="73" as="targetPoint" />
          </mxGeometry>
        </mxCell>
        <mxCell id="NrFbyqDi8mzPXDeEG6nv-23" value="C1" style="text;html=1;strokeColor=none;fillColor=none;align=center;verticalAlign=middle;whiteSpace=wrap;rounded=0;" vertex="1" parent="1">
          <mxGeometry x="90" y="70" width="40" height="20" as="geometry" />
        </mxCell>
        <mxCell id="NrFbyqDi8mzPXDeEG6nv-24" value="" style="endArrow=none;html=1;exitX=1;exitY=0.5;exitDx=0;exitDy=0;entryX=0;entryY=0.5;entryDx=0;entryDy=0;" edge="1" parent="1" source="NrFbyqDi8mzPXDeEG6nv-16" target="NrFbyqDi8mzPXDeEG6nv-15">
          <mxGeometry width="50" height="50" relative="1" as="geometry">
            <mxPoint x="330" y="170" as="sourcePoint" />
            <mxPoint x="380" y="120" as="targetPoint" />
          </mxGeometry>
        </mxCell>
        <mxCell id="NrFbyqDi8mzPXDeEG6nv-28" value="" style="endArrow=none;html=1;entryX=0;entryY=0.5;entryDx=0;entryDy=0;exitX=1;exitY=0.5;exitDx=0;exitDy=0;" edge="1" parent="1" source="NrFbyqDi8mzPXDeEG6nv-14" target="NrFbyqDi8mzPXDeEG6nv-17">
          <mxGeometry width="50" height="50" relative="1" as="geometry">
            <mxPoint x="330" y="150" as="sourcePoint" />
            <mxPoint x="380" y="100" as="targetPoint" />
          </mxGeometry>
        </mxCell>
        <mxCell id="NrFbyqDi8mzPXDeEG6nv-29" value="C3" style="text;html=1;strokeColor=none;fillColor=none;align=center;verticalAlign=middle;whiteSpace=wrap;rounded=0;" vertex="1" parent="1">
          <mxGeometry x="360" y="75" width="40" height="20" as="geometry" />
        </mxCell>
        <mxCell id="NrFbyqDi8mzPXDeEG6nv-30" value="C2" style="text;html=1;strokeColor=none;fillColor=none;align=center;verticalAlign=middle;whiteSpace=wrap;rounded=0;" vertex="1" parent="1">
          <mxGeometry x="440" y="100" width="40" height="20" as="geometry" />
        </mxCell>
        <mxCell id="NrFbyqDi8mzPXDeEG6nv-31" value="C4" style="text;html=1;strokeColor=none;fillColor=none;align=center;verticalAlign=middle;whiteSpace=wrap;rounded=0;" vertex="1" parent="1">
          <mxGeometry x="530" y="75" width="40" height="20" as="geometry" />
        </mxCell>
        <mxCell id="NrFbyqDi8mzPXDeEG6nv-32" value="C5" style="text;html=1;strokeColor=none;fillColor=none;align=center;verticalAlign=middle;whiteSpace=wrap;rounded=0;" vertex="1" parent="1">
          <mxGeometry x="240" y="170" width="40" height="20" as="geometry" />
        </mxCell>
        <mxCell id="NrFbyqDi8mzPXDeEG6nv-33" value="C6" style="text;html=1;strokeColor=none;fillColor=none;align=center;verticalAlign=middle;whiteSpace=wrap;rounded=0;" vertex="1" parent="1">
          <mxGeometry x="450" y="170" width="40" height="20" as="geometry" />
        </mxCell>
      </root>
    </mxGraphModel>
  </diagram>
</mxfile>
